<svg xmlns="http://www.w3.org/2000/svg" xmlns:xlink="http://www.w3.org/1999/xlink" width="500" zoomAndPan="magnify" viewBox="0 0 375 374.999991" height="500" preserveAspectRatio="xMidYMid meet" version="1.2"><defs/><g id="3513334dd9"><g style="fill:#e4e2dd;fill-opacity:1;"><g transform="translate(89.216839, 199.675084)"><path style="stroke:none" d="M 5.078125 -3.40625 C 2.515625 -6.207031 1.234375 -9.640625 1.234375 -13.703125 C 1.234375 -17.773438 2.515625 -21.222656 5.078125 -24.046875 C 7.648438 -26.867188 10.921875 -28.28125 14.890625 -28.28125 C 18.535156 -28.28125 21.535156 -27.140625 23.890625 -24.859375 L 23.890625 -27.484375 L 33.375 -27.484375 L 33.375 0 L 24 0 L 24 -3.109375 L 23.890625 -3.109375 C 21.535156 -0.503906 18.535156 0.796875 14.890625 0.796875 C 10.921875 0.796875 7.648438 -0.601562 5.078125 -3.40625 Z M 13.140625 -18.359375 C 11.910156 -17.148438 11.296875 -15.597656 11.296875 -13.703125 C 11.296875 -11.816406 11.882812 -10.273438 13.0625 -9.078125 C 14.25 -7.878906 15.804688 -7.28125 17.734375 -7.28125 C 19.585938 -7.28125 21.113281 -7.882812 22.3125 -9.09375 C 23.507812 -10.3125 24.109375 -11.851562 24.109375 -13.71875 C 24.109375 -15.601562 23.488281 -17.148438 22.25 -18.359375 C 21.019531 -19.578125 19.515625 -20.1875 17.734375 -20.1875 C 15.910156 -20.1875 14.378906 -19.578125 13.140625 -18.359375 Z M 13.140625 -18.359375 "/></g></g><g style="fill:#e4e2dd;fill-opacity:1;"><g transform="translate(121.240583, 199.675084)"><path style="stroke:none" d="M 1.984375 6.75 L 9.75 2.953125 C 11.175781 5.304688 13.65625 6.484375 17.1875 6.484375 C 18.832031 6.484375 20.359375 5.957031 21.765625 4.90625 C 23.179688 3.851562 23.890625 2.234375 23.890625 0.046875 L 23.890625 -1.984375 C 22.210938 -0.128906 19.210938 0.796875 14.890625 0.796875 C 10.921875 0.796875 7.648438 -0.601562 5.078125 -3.40625 C 2.515625 -6.207031 1.234375 -9.640625 1.234375 -13.703125 C 1.234375 -17.773438 2.515625 -21.222656 5.078125 -24.046875 C 7.648438 -26.867188 10.921875 -28.28125 14.890625 -28.28125 C 18.421875 -28.28125 21.367188 -27.191406 23.734375 -25.015625 L 23.890625 -25.015625 L 23.890625 -27.484375 L 33.375 -27.484375 L 33.375 0.75 C 33.375 5.207031 31.890625 8.648438 28.921875 11.078125 C 25.960938 13.515625 22.050781 14.734375 17.1875 14.734375 C 9.332031 14.734375 4.265625 12.070312 1.984375 6.75 Z M 13.140625 -18.359375 C 11.910156 -17.148438 11.296875 -15.597656 11.296875 -13.703125 C 11.296875 -11.816406 11.882812 -10.273438 13.0625 -9.078125 C 14.25 -7.878906 15.804688 -7.28125 17.734375 -7.28125 C 19.585938 -7.28125 21.113281 -7.882812 22.3125 -9.09375 C 23.507812 -10.3125 24.109375 -11.851562 24.109375 -13.71875 C 24.109375 -15.601562 23.488281 -17.148438 22.25 -18.359375 C 21.019531 -19.578125 19.515625 -20.1875 17.734375 -20.1875 C 15.910156 -20.1875 14.378906 -19.578125 13.140625 -18.359375 Z M 13.140625 -18.359375 "/></g></g><g style="fill:#e4e2dd;fill-opacity:1;"><g transform="translate(153.264328, 199.675084)"><path style="stroke:none" d="M 4.125 -42.796875 C 5.226562 -43.898438 6.546875 -44.453125 8.078125 -44.453125 C 9.617188 -44.453125 10.941406 -43.898438 12.046875 -42.796875 C 13.160156 -41.691406 13.71875 -40.367188 13.71875 -38.828125 C 13.71875 -37.296875 13.160156 -35.972656 12.046875 -34.859375 C 10.941406 -33.753906 9.617188 -33.203125 8.078125 -33.203125 C 6.546875 -33.203125 5.226562 -33.753906 4.125 -34.859375 C 3.019531 -35.972656 2.46875 -37.296875 2.46875 -38.828125 C 2.46875 -40.367188 3.019531 -41.691406 4.125 -42.796875 Z M 3.21875 -27.484375 L 3.21875 0 L 12.6875 0 L 12.6875 -27.484375 Z M 3.21875 -27.484375 "/></g></g><g style="fill:#e4e2dd;fill-opacity:1;"><g transform="translate(164.884144, 199.675084)"><path style="stroke:none" d="M 3.21875 0 L 3.21875 -46.0625 L 12.6875 -46.0625 L 12.6875 0 Z M 3.21875 0 "/></g></g><g style="fill:#e4e2dd;fill-opacity:1;"><g transform="translate(176.236183, 199.675084)"><path style="stroke:none" d="M 31.015625 -12.421875 L 11.09375 -12.421875 C 11.09375 -10.492188 11.71875 -9.066406 12.96875 -8.140625 C 14.21875 -7.210938 15.570312 -6.75 17.03125 -6.75 C 18.570312 -6.75 19.785156 -6.953125 20.671875 -7.359375 C 21.566406 -7.773438 22.585938 -8.585938 23.734375 -9.796875 L 30.578125 -6.375 C 27.722656 -1.59375 22.976562 0.796875 16.34375 0.796875 C 12.195312 0.796875 8.640625 -0.617188 5.671875 -3.453125 C 2.710938 -6.296875 1.234375 -9.71875 1.234375 -13.71875 C 1.234375 -17.71875 2.710938 -21.144531 5.671875 -24 C 8.640625 -26.851562 12.195312 -28.28125 16.34375 -28.28125 C 20.695312 -28.28125 24.238281 -27.019531 26.96875 -24.5 C 29.695312 -21.988281 31.0625 -18.394531 31.0625 -13.71875 C 31.0625 -13.070312 31.046875 -12.640625 31.015625 -12.421875 Z M 11.359375 -17.671875 L 21.796875 -17.671875 C 21.585938 -19.097656 21.023438 -20.195312 20.109375 -20.96875 C 19.203125 -21.738281 18.035156 -22.125 16.609375 -22.125 C 15.035156 -22.125 13.785156 -21.710938 12.859375 -20.890625 C 11.929688 -20.066406 11.429688 -18.992188 11.359375 -17.671875 Z M 11.359375 -17.671875 "/></g></g><g style="fill:#e4e2dd;fill-opacity:1;"><g transform="translate(203.975635, 199.675084)"><path style="stroke:none" d="M 3.21875 -44.1875 L 19.34375 -44.1875 C 23.832031 -44.1875 27.46875 -43.023438 30.25 -40.703125 C 33.039062 -38.378906 34.4375 -35.003906 34.4375 -30.578125 C 34.4375 -26.148438 33.023438 -22.675781 30.203125 -20.15625 C 27.390625 -17.644531 23.769531 -16.390625 19.34375 -16.390625 L 13.28125 -16.390625 L 13.28125 0 L 3.21875 0 Z M 13.28125 -24.421875 L 16.125 -24.421875 C 18.375 -24.421875 20.21875 -24.875 21.65625 -25.78125 C 23.101562 -26.695312 23.828125 -28.191406 23.828125 -30.265625 C 23.828125 -32.367188 23.101562 -33.875 21.65625 -34.78125 C 20.21875 -35.695312 18.375 -36.15625 16.125 -36.15625 L 13.28125 -36.15625 Z M 13.28125 -24.421875 "/></g></g><g style="fill:#e4e2dd;fill-opacity:1;"><g transform="translate(235.088964, 199.675084)"><path style="stroke:none" d="M 39.75 0 L 37.65625 -26.1875 L 37.390625 -26.1875 L 28.328125 -0.265625 L 22.328125 -0.265625 L 13.28125 -26.1875 L 13.015625 -26.1875 L 10.921875 0 L 0.859375 0 L 4.828125 -44.1875 L 15.53125 -44.1875 L 25.328125 -18.6875 L 35.140625 -44.1875 L 45.84375 -44.1875 L 49.8125 0 Z M 39.75 0 "/></g></g><path style="fill:none;stroke-width:10;stroke-linecap:butt;stroke-linejoin:miter;stroke:#e4e2dd;stroke-opacity:1;stroke-miterlimit:4;" d="M 0.00242269 5.000386 L 84.434774 5.000386 " transform="matrix(0.746252,0,0,0.746252,59.213036,228.073139)"/><path style="fill:none;stroke-width:10;stroke-linecap:butt;stroke-linejoin:miter;stroke:#e4e2dd;stroke-opacity:1;stroke-miterlimit:4;" d="M 0.00137075 4.999102 L 82.464973 4.999102 " transform="matrix(0,0.745878,-0.745878,0,66.709191,171.479446)"/><path style="fill:none;stroke-width:10;stroke-linecap:butt;stroke-linejoin:miter;stroke:#e4e2dd;stroke-opacity:1;stroke-miterlimit:4;" d="M -0.00100135 5.000518 L 84.43135 5.000518 " transform="matrix(-0.746252,0,0,-0.746252,305.507065,146.919146)"/><path style="fill:none;stroke-width:10;stroke-linecap:butt;stroke-linejoin:miter;stroke:#e4e2dd;stroke-opacity:1;stroke-miterlimit:4;" d="M 0.00149929 5.002537 L 82.465102 5.002537 " transform="matrix(0,-0.745878,0.745878,0,298.010903,203.512837)"/></g></svg>